# xmcd
#
# Track frame offsets:
#	150
#	16350
#	34039
#	51351
#	67317
#	83276
#	100265
#	115446
#	133904
#	147259
#	163225
#	182922
#	197966
#	210484
#	228373
#	246821
#	263852
#
# Disc length: 3709 seconds
#
# Revision: 1
# Processed by: cddbd v1.5.2PL0 Copyright (c) Steve Scherf et al.
# Submitted via: audiograbber 1.83.01
#
DISCID=fc0e7b11
DTITLE=Various Artist - have you heard The NEW Sound of TODAY'S COUNTRY
DYEAR=2006
DGENRE=Country
TTITLE0=Jack Ingram - Wherever You Are
TTITLE1=Rockie Lynne - Do We Still
TTITLE2=Katrina Elam - Pretty
TTITLE3=Carolina Rain - I Ain't Scared
TTITLE4=Taylor Swift - The Outside
TTITLE5=Danielle Peck - Fallin' Apart
TTITLE6=Cross Canadian Ragweed - Fightin' For
TTITLE7=Shooter Jennings - Gone to Carolina
TTITLE8=Julie Roberts - Girl Next Door
TTITLE9=Carolina Rain - All Before The Sun Goes Down
TTITLE10=Rockie Lynne - Lipstick
TTITLE11=Taylor Swift - A Place In This World
TTITLE12=Katrina Elam - Flat On The Floor
TTITLE13=Jack Ingram and Danielle Peck - You Never Knocked Me Down
TTITLE14=Danielle Peck - Somebody For You
TTITLE15=Cross Canadian Ragweed - This Time Around
TTITLE16=Shooter Jennings - Some Rowdy Women
EXTD=
EXTT0=
EXTT1=
EXTT2=
EXTT3=
EXTT4=
EXTT5=
EXTT6=
EXTT7=
EXTT8=
EXTT9=
EXTT10=
EXTT11=
EXTT12=
EXTT13=
EXTT14=
EXTT15=
EXTT16=
PLAYORDER=
